<mxfile host="app.diagrams.net" modified="2024-03-07T08:19:30.996Z" agent="Mozilla/5.0 (Windows NT 10.0; Win64; x64) AppleWebKit/537.36 (KHTML, like Gecko) Chrome/114.0.0.0 Safari/537.36" etag="o_h4G8vdhypzz1l3CYMN" version="23.1.1" type="github">
  <diagram name="第 1 页" id="4YPCldq3zVd2wHIqH_wj">
    <mxGraphModel dx="1050" dy="549" grid="1" gridSize="10" guides="1" tooltips="1" connect="1" arrows="1" fold="1" page="1" pageScale="1" pageWidth="827" pageHeight="1169" math="0" shadow="0">
      <root>
        <mxCell id="0" />
        <mxCell id="1" parent="0" />
        <mxCell id="PeAoNjo4Dzf0Y_vOwdE1-12" value="流程审批&lt;br&gt;&lt;br&gt;&lt;br&gt;&lt;br&gt;&lt;br&gt;&lt;br&gt;&lt;br&gt;&lt;br&gt;&lt;br&gt;&lt;br&gt;&lt;br&gt;&lt;br&gt;&lt;br&gt;&lt;br&gt;&lt;br&gt;&lt;br&gt;&lt;br&gt;&lt;br&gt;&lt;br&gt;&lt;br&gt;&lt;br&gt;&lt;br&gt;&lt;br&gt;&lt;br&gt;&lt;br&gt;&lt;br&gt;&lt;br&gt;&lt;br&gt;" style="rounded=0;whiteSpace=wrap;html=1;" vertex="1" parent="1">
          <mxGeometry x="270" y="170" width="180" height="450" as="geometry" />
        </mxCell>
        <mxCell id="PeAoNjo4Dzf0Y_vOwdE1-11" value="拟制&lt;br&gt;&lt;br&gt;&lt;br&gt;&lt;br&gt;&lt;br&gt;&lt;br&gt;&lt;br&gt;&lt;br&gt;&lt;br&gt;&lt;br&gt;&lt;br&gt;&lt;br&gt;&lt;br&gt;&lt;br&gt;&lt;br&gt;&lt;br&gt;&lt;br&gt;&lt;br&gt;&lt;br&gt;&lt;br&gt;&lt;br&gt;&lt;br&gt;&lt;br&gt;&lt;br&gt;&lt;br&gt;&lt;br&gt;&lt;br&gt;&lt;br&gt;" style="rounded=0;whiteSpace=wrap;html=1;" vertex="1" parent="1">
          <mxGeometry x="50" y="170" width="180" height="450" as="geometry" />
        </mxCell>
        <mxCell id="PeAoNjo4Dzf0Y_vOwdE1-13" style="edgeStyle=orthogonalEdgeStyle;rounded=0;orthogonalLoop=1;jettySize=auto;html=1;exitX=0.5;exitY=1;exitDx=0;exitDy=0;entryX=0.5;entryY=0;entryDx=0;entryDy=0;" edge="1" parent="1" source="PeAoNjo4Dzf0Y_vOwdE1-2" target="PeAoNjo4Dzf0Y_vOwdE1-3">
          <mxGeometry relative="1" as="geometry" />
        </mxCell>
        <mxCell id="PeAoNjo4Dzf0Y_vOwdE1-2" value="前置步骤&lt;br&gt;测试数据清理" style="ellipse;whiteSpace=wrap;html=1;" vertex="1" parent="1">
          <mxGeometry x="80" y="220" width="120" height="80" as="geometry" />
        </mxCell>
        <mxCell id="PeAoNjo4Dzf0Y_vOwdE1-15" style="edgeStyle=orthogonalEdgeStyle;rounded=0;orthogonalLoop=1;jettySize=auto;html=1;exitX=0.5;exitY=1;exitDx=0;exitDy=0;entryX=0.5;entryY=0;entryDx=0;entryDy=0;" edge="1" parent="1" source="PeAoNjo4Dzf0Y_vOwdE1-3" target="PeAoNjo4Dzf0Y_vOwdE1-4">
          <mxGeometry relative="1" as="geometry" />
        </mxCell>
        <mxCell id="PeAoNjo4Dzf0Y_vOwdE1-3" value="登录流程发起人账号" style="ellipse;whiteSpace=wrap;html=1;" vertex="1" parent="1">
          <mxGeometry x="80" y="323" width="120" height="80" as="geometry" />
        </mxCell>
        <mxCell id="PeAoNjo4Dzf0Y_vOwdE1-16" style="edgeStyle=orthogonalEdgeStyle;rounded=0;orthogonalLoop=1;jettySize=auto;html=1;exitX=0.5;exitY=1;exitDx=0;exitDy=0;entryX=0.5;entryY=0;entryDx=0;entryDy=0;" edge="1" parent="1" source="PeAoNjo4Dzf0Y_vOwdE1-4" target="PeAoNjo4Dzf0Y_vOwdE1-5">
          <mxGeometry relative="1" as="geometry" />
        </mxCell>
        <mxCell id="PeAoNjo4Dzf0Y_vOwdE1-4" value="测试数据填写" style="ellipse;whiteSpace=wrap;html=1;" vertex="1" parent="1">
          <mxGeometry x="80" y="427" width="120" height="80" as="geometry" />
        </mxCell>
        <mxCell id="PeAoNjo4Dzf0Y_vOwdE1-5" value="提交" style="ellipse;whiteSpace=wrap;html=1;" vertex="1" parent="1">
          <mxGeometry x="80" y="530" width="120" height="80" as="geometry" />
        </mxCell>
        <mxCell id="PeAoNjo4Dzf0Y_vOwdE1-18" style="edgeStyle=orthogonalEdgeStyle;rounded=0;orthogonalLoop=1;jettySize=auto;html=1;exitX=0.5;exitY=1;exitDx=0;exitDy=0;" edge="1" parent="1" source="PeAoNjo4Dzf0Y_vOwdE1-6" target="PeAoNjo4Dzf0Y_vOwdE1-8">
          <mxGeometry relative="1" as="geometry" />
        </mxCell>
        <mxCell id="PeAoNjo4Dzf0Y_vOwdE1-6" value="检索待审批审批单" style="ellipse;whiteSpace=wrap;html=1;" vertex="1" parent="1">
          <mxGeometry x="300" y="323" width="120" height="80" as="geometry" />
        </mxCell>
        <mxCell id="PeAoNjo4Dzf0Y_vOwdE1-17" style="edgeStyle=orthogonalEdgeStyle;rounded=0;orthogonalLoop=1;jettySize=auto;html=1;exitX=0.5;exitY=1;exitDx=0;exitDy=0;entryX=0.5;entryY=0;entryDx=0;entryDy=0;" edge="1" parent="1" source="PeAoNjo4Dzf0Y_vOwdE1-7" target="PeAoNjo4Dzf0Y_vOwdE1-6">
          <mxGeometry relative="1" as="geometry" />
        </mxCell>
        <mxCell id="PeAoNjo4Dzf0Y_vOwdE1-7" value="登录流程审批人" style="ellipse;whiteSpace=wrap;html=1;" vertex="1" parent="1">
          <mxGeometry x="294" y="220" width="120" height="80" as="geometry" />
        </mxCell>
        <mxCell id="PeAoNjo4Dzf0Y_vOwdE1-19" style="edgeStyle=orthogonalEdgeStyle;rounded=0;orthogonalLoop=1;jettySize=auto;html=1;exitX=0.5;exitY=1;exitDx=0;exitDy=0;entryX=0.5;entryY=0;entryDx=0;entryDy=0;" edge="1" parent="1" source="PeAoNjo4Dzf0Y_vOwdE1-8" target="PeAoNjo4Dzf0Y_vOwdE1-9">
          <mxGeometry relative="1" as="geometry" />
        </mxCell>
        <mxCell id="PeAoNjo4Dzf0Y_vOwdE1-8" value="根据流程填写审批单" style="ellipse;whiteSpace=wrap;html=1;" vertex="1" parent="1">
          <mxGeometry x="300" y="427" width="120" height="80" as="geometry" />
        </mxCell>
        <mxCell id="PeAoNjo4Dzf0Y_vOwdE1-9" value="审批" style="ellipse;whiteSpace=wrap;html=1;" vertex="1" parent="1">
          <mxGeometry x="300" y="530" width="120" height="80" as="geometry" />
        </mxCell>
      </root>
    </mxGraphModel>
  </diagram>
</mxfile>
